Coordinates
version=1
nRows=12
nColumns=24
inDegrees=yes

Units are S.I. units (second, meters, Newtons, ...)
Angles are in degrees.

endheader
time	pelvis_tilt	pelvis_list	pelvis_rotation	pelvis_tx	pelvis_ty	pelvis_tz	hip_flexion_r	hip_adduction_r	hip_rotation_r	knee_angle_r	ankle_angle_r	subtalar_angle_r	mtp_angle_r	hip_flexion_l	hip_adduction_l	hip_rotation_l	knee_angle_l	ankle_angle_l	subtalar_angle_l	mtp_angle_l	lumbar_extension	lumbar_bending	lumbar_rotation
      2.74500000	     -9.83621753	      8.53770081	     -7.12366762	     -2.49768763	     -0.05451434	      0.52493304	     17.92552652	    -10.17527095	      1.91544564	    -66.21663002	    -28.34700315	      6.44877480	     22.67367158	     33.16428052	     11.60006913	      2.27365032	    -32.60731805	      3.40722538	     14.67384139	     14.50247728	      8.11392395	     -7.99883166	     11.84534471
      2.75000000	     -9.63697934	      8.53663573	     -7.00489963	     -2.49009070	     -0.05322382	      0.52450230	     18.64622202	    -10.10773379	      1.89336713	    -66.86727848	    -27.14881934	      6.05711466	     23.17800135	     32.21364908	     11.86316620	      2.56192198	    -32.29387565	      3.81763745	     14.53344533	     14.34625547	      7.89637833	     -7.98979960	     11.56036418
      2.75500000	     -9.51135633	      8.50816374	     -6.89771066	     -2.48253869	     -0.05198628	      0.52412231	     19.45701032	     -9.98683855	      1.84628907	    -67.44747829	    -26.07507671	      5.51601538	     23.56842197	     31.33168979	     12.06993981	      2.88078028	    -31.96255027	      4.19692640	     14.43546440	     14.33106777	      7.76188712	     -7.94194487	     11.36659978
      2.76000000	     -9.28785716	      8.42422091	     -6.76615267	     -2.47490792	     -0.05053476	      0.52366940	     20.10135463	     -9.82729038	      1.77195805	    -67.88451566	    -24.95289046	      5.23000248	     24.02200409	     30.29393581	     12.27561099	      3.33194398	    -31.58330169	      4.49614728	     14.16395368	     14.11269640	      7.51564050	     -7.84333079	     11.03482866
      2.76500000	     -9.10929354	      8.32106141	     -6.65966403	     -2.46729849	     -0.04912650	      0.52328452	     20.79969534	     -9.62542365	      1.69702497	    -68.24976352	    -23.90069688	      4.91984806	     24.40545402	     29.29792751	     12.42310308	      3.76545915	    -31.19324516	      4.80486688	     13.96496651	     13.97895049	      7.32585168	     -7.71817824	     10.77867519
      2.77000000	     -8.93209017	      8.17940623	     -6.55190259	     -2.45967359	     -0.04768624	      0.52290002	     21.47258766	     -9.37363760	      1.61045173	    -68.51497975	    -22.87250756	      4.67627442	     24.75483684	     28.28371439	     12.52847231	      4.22634400	    -30.78184457	      5.07926339	     13.72622547	     13.83882611	      7.13577776	     -7.54625553	     10.51885385
      2.77500000	     -8.76876436	      8.00832963	     -6.44872881	     -2.45200654	     -0.04622855	      0.52254054	     22.13649392	     -9.08156565	      1.51262559	    -68.68315932	    -21.88890383	      4.49059204	     25.06808001	     27.25798378	     12.59486188	      4.73799905	    -30.34066822	      5.33158542	     13.48330335	     13.71022380	      6.97172242	     -7.34314149	     10.25396190
      2.78000000	     -8.60115340	      7.80995970	     -6.34746700	     -2.44433474	     -0.04476084	      0.52218941	     22.77225324	     -8.75876467	      1.39638206	    -68.75830463	    -20.92513366	      4.36067397	     25.35789543	     26.21486097	     12.62648135	      5.25873345	    -29.88296954	      5.55049603	     13.19341705	     13.56327987	      6.80195744	     -7.10911141	      9.98462609
      2.78500000	     -8.44105399	      7.58700507	     -6.24152669	     -2.43665809	     -0.04330250	      0.52184250	     23.39176946	     -8.40867557	      1.25937329	    -68.74272977	    -19.99052000	      4.27665021	     25.62116819	     25.16588768	     12.62654304	      5.80581338	    -29.40850200	      5.74435368	     12.88121783	     13.40705893	      6.64095423	     -6.84885623	      9.70223995
      2.79000000	     -8.27840654	      7.34913215	     -6.11971631	     -2.42900863	     -0.04187991	      0.52148043	     23.98807396	     -8.05400654	      1.08617635	    -68.64755506	    -19.06727653	      4.23395194	     25.86051579	     24.10912170	     12.61206352	      6.38239597	    -28.92695191	      5.91987337	     12.52918714	     13.23570442	      6.46894476	     -6.57744462	      9.39923936
      2.79500000	     -8.14833728	      7.07079616	     -5.98054827	     -2.42136765	     -0.04048161	      0.52112322	     24.58711096	     -7.64917914	      0.89194933	    -68.45609790	    -18.19653425	      4.22723146	     26.06393658	     23.07420931	     12.54685940	      7.00158411	    -28.43432818	      6.07871093	     12.18224273	     13.06278923	      6.33182994	     -6.26310486	      9.06705754
      2.80000000	     -8.05255963	      6.75851774	     -5.81720820	     -2.41372563	     -0.03910935	      0.52078177	     25.18912982	     -7.20958934	      0.66320214	    -68.16724110	    -17.38281300	      4.24897403	     26.23249516	     22.06480465	     12.43393606	      7.64576242	    -27.92946733	      6.21478677	     11.85036128	     12.88106039	      6.23562140	     -5.91687910	      8.72611623
